<mxfile host="app.diagrams.net" modified="2022-08-30T16:43:13.431Z" agent="5.0 (Windows NT 10.0; Win64; x64) AppleWebKit/537.36 (KHTML, like Gecko) Chrome/104.0.0.0 Safari/537.36" etag="VS8GgE1Rg912p1C1Acjr" version="20.2.6" type="github" pages="5">
  <diagram id="vgWtAW3Z7E3r17hdpEy-" name="FACT_COVID_M">
    <mxGraphModel dx="1422" dy="737" grid="1" gridSize="10" guides="1" tooltips="1" connect="1" arrows="1" fold="1" page="1" pageScale="1" pageWidth="827" pageHeight="1169" math="0" shadow="0">
      <root>
        <mxCell id="0" />
        <mxCell id="1" parent="0" />
        <mxCell id="q2_rF_E4KVoeCvqUYvYB-1" value="" style="rhombus;whiteSpace=wrap;html=1;" vertex="1" parent="1">
          <mxGeometry x="344.6500000000001" y="200" width="135" height="80" as="geometry" />
        </mxCell>
        <mxCell id="q2_rF_E4KVoeCvqUYvYB-2" value="DIM_MUNICIPIOS" style="rounded=0;whiteSpace=wrap;html=1;" vertex="1" parent="1">
          <mxGeometry x="356" y="80" width="120" height="60" as="geometry" />
        </mxCell>
        <mxCell id="q2_rF_E4KVoeCvqUYvYB-3" value="FECHA&lt;br&gt;-------------" style="ellipse;whiteSpace=wrap;html=1;" vertex="1" parent="1">
          <mxGeometry x="96" y="495" width="100" height="40" as="geometry" />
        </mxCell>
        <mxCell id="q2_rF_E4KVoeCvqUYvYB-4" style="rounded=0;orthogonalLoop=1;jettySize=auto;html=1;exitX=0.5;exitY=1;exitDx=0;exitDy=0;entryX=0.5;entryY=0;entryDx=0;entryDy=0;endArrow=none;endFill=0;" edge="1" parent="1" source="q2_rF_E4KVoeCvqUYvYB-2" target="q2_rF_E4KVoeCvqUYvYB-6">
          <mxGeometry relative="1" as="geometry">
            <mxPoint x="706" y="170" as="sourcePoint" />
          </mxGeometry>
        </mxCell>
        <mxCell id="q2_rF_E4KVoeCvqUYvYB-5" value="0..N" style="edgeLabel;html=1;align=center;verticalAlign=middle;resizable=0;points=[];" vertex="1" connectable="0" parent="q2_rF_E4KVoeCvqUYvYB-4">
          <mxGeometry x="-0.6" y="-2" relative="1" as="geometry">
            <mxPoint x="2" y="8" as="offset" />
          </mxGeometry>
        </mxCell>
        <mxCell id="q2_rF_E4KVoeCvqUYvYB-6" value="Registra" style="rhombus;whiteSpace=wrap;html=1;" vertex="1" parent="1">
          <mxGeometry x="352.1500000000001" y="210" width="120" height="60" as="geometry" />
        </mxCell>
        <mxCell id="q2_rF_E4KVoeCvqUYvYB-7" value="&lt;u&gt;COD_MUN&lt;/u&gt;" style="ellipse;whiteSpace=wrap;html=1;" vertex="1" parent="1">
          <mxGeometry x="526" y="60" width="100" height="40" as="geometry" />
        </mxCell>
        <mxCell id="q2_rF_E4KVoeCvqUYvYB-8" value="COD_POSTAL" style="ellipse;whiteSpace=wrap;html=1;" vertex="1" parent="1">
          <mxGeometry x="526" y="120" width="100" height="40" as="geometry" />
        </mxCell>
        <mxCell id="q2_rF_E4KVoeCvqUYvYB-9" value="MUNICIPIO" style="ellipse;whiteSpace=wrap;html=1;" vertex="1" parent="1">
          <mxGeometry x="181" y="90" width="100" height="40" as="geometry" />
        </mxCell>
        <mxCell id="q2_rF_E4KVoeCvqUYvYB-10" value="" style="endArrow=none;html=1;rounded=0;entryX=0;entryY=0.5;entryDx=0;entryDy=0;exitX=1;exitY=0.5;exitDx=0;exitDy=0;" edge="1" parent="1" source="q2_rF_E4KVoeCvqUYvYB-9" target="q2_rF_E4KVoeCvqUYvYB-2">
          <mxGeometry width="50" height="50" relative="1" as="geometry">
            <mxPoint x="136" y="240" as="sourcePoint" />
            <mxPoint x="186" y="190" as="targetPoint" />
          </mxGeometry>
        </mxCell>
        <mxCell id="q2_rF_E4KVoeCvqUYvYB-11" value="" style="endArrow=none;html=1;rounded=0;entryX=0;entryY=0.5;entryDx=0;entryDy=0;exitX=1;exitY=0.5;exitDx=0;exitDy=0;" edge="1" parent="1" source="q2_rF_E4KVoeCvqUYvYB-2" target="q2_rF_E4KVoeCvqUYvYB-7">
          <mxGeometry width="50" height="50" relative="1" as="geometry">
            <mxPoint x="136" y="240" as="sourcePoint" />
            <mxPoint x="186" y="190" as="targetPoint" />
          </mxGeometry>
        </mxCell>
        <mxCell id="q2_rF_E4KVoeCvqUYvYB-12" value="" style="endArrow=none;html=1;rounded=0;entryX=0;entryY=0.5;entryDx=0;entryDy=0;exitX=1;exitY=0.5;exitDx=0;exitDy=0;" edge="1" parent="1" source="q2_rF_E4KVoeCvqUYvYB-2" target="q2_rF_E4KVoeCvqUYvYB-8">
          <mxGeometry width="50" height="50" relative="1" as="geometry">
            <mxPoint x="136" y="240" as="sourcePoint" />
            <mxPoint x="536.0000000000036" y="140" as="targetPoint" />
          </mxGeometry>
        </mxCell>
        <mxCell id="q2_rF_E4KVoeCvqUYvYB-13" value="" style="group" vertex="1" connectable="0" parent="1">
          <mxGeometry x="332.1500000000001" y="334" width="160" height="90" as="geometry" />
        </mxCell>
        <mxCell id="q2_rF_E4KVoeCvqUYvYB-14" value="" style="rounded=0;whiteSpace=wrap;html=1;" vertex="1" parent="q2_rF_E4KVoeCvqUYvYB-13">
          <mxGeometry width="160" height="90" as="geometry" />
        </mxCell>
        <mxCell id="q2_rF_E4KVoeCvqUYvYB-15" value="FACT_COVID_M" style="rounded=0;whiteSpace=wrap;html=1;" vertex="1" parent="q2_rF_E4KVoeCvqUYvYB-13">
          <mxGeometry x="10" y="20" width="140" height="50" as="geometry" />
        </mxCell>
        <mxCell id="q2_rF_E4KVoeCvqUYvYB-16" value="1..1" style="endArrow=none;html=1;rounded=0;entryX=0.5;entryY=1;entryDx=0;entryDy=0;exitX=0.5;exitY=0;exitDx=0;exitDy=0;" edge="1" parent="1" source="q2_rF_E4KVoeCvqUYvYB-14" target="q2_rF_E4KVoeCvqUYvYB-6">
          <mxGeometry width="50" height="50" relative="1" as="geometry">
            <mxPoint x="141" y="290" as="sourcePoint" />
            <mxPoint x="572.1500000000015" y="300" as="targetPoint" />
          </mxGeometry>
        </mxCell>
        <mxCell id="q2_rF_E4KVoeCvqUYvYB-17" value="" style="endArrow=none;html=1;rounded=0;entryX=1;entryY=0;entryDx=0;entryDy=0;exitX=0.25;exitY=1;exitDx=0;exitDy=0;" edge="1" parent="1" source="q2_rF_E4KVoeCvqUYvYB-14" target="q2_rF_E4KVoeCvqUYvYB-3">
          <mxGeometry width="50" height="50" relative="1" as="geometry">
            <mxPoint x="456" y="390" as="sourcePoint" />
            <mxPoint x="440.99999999999955" y="305" as="targetPoint" />
          </mxGeometry>
        </mxCell>
        <mxCell id="q2_rF_E4KVoeCvqUYvYB-18" value="Confirmados_PDIA" style="ellipse;whiteSpace=wrap;html=1;" vertex="1" parent="1">
          <mxGeometry x="11" y="395" width="138.85" height="45" as="geometry" />
        </mxCell>
        <mxCell id="q2_rF_E4KVoeCvqUYvYB-19" value="" style="endArrow=none;html=1;rounded=0;entryX=1;entryY=0.5;entryDx=0;entryDy=0;exitX=0;exitY=0.75;exitDx=0;exitDy=0;" edge="1" parent="1" source="q2_rF_E4KVoeCvqUYvYB-14" target="q2_rF_E4KVoeCvqUYvYB-18">
          <mxGeometry width="50" height="50" relative="1" as="geometry">
            <mxPoint x="298.3000000000002" y="424" as="sourcePoint" />
            <mxPoint x="292.14999999999964" y="325" as="targetPoint" />
          </mxGeometry>
        </mxCell>
        <mxCell id="q2_rF_E4KVoeCvqUYvYB-20" value="Confirmados_PDIA_7Dias" style="ellipse;whiteSpace=wrap;html=1;" vertex="1" parent="1">
          <mxGeometry x="631" y="334" width="185" height="50" as="geometry" />
        </mxCell>
        <mxCell id="q2_rF_E4KVoeCvqUYvYB-21" value="Confirmados_PDIA_14Dias" style="ellipse;whiteSpace=wrap;html=1;" vertex="1" parent="1">
          <mxGeometry x="11" y="315" width="185" height="50" as="geometry" />
        </mxCell>
        <mxCell id="q2_rF_E4KVoeCvqUYvYB-22" value="Tasa_PDIA_7Dias" style="ellipse;whiteSpace=wrap;html=1;" vertex="1" parent="1">
          <mxGeometry x="610" y="265" width="185" height="50" as="geometry" />
        </mxCell>
        <mxCell id="q2_rF_E4KVoeCvqUYvYB-23" value="Tasa_PDIA_14Dias" style="ellipse;whiteSpace=wrap;html=1;" vertex="1" parent="1">
          <mxGeometry x="621" y="407.5" width="185" height="50" as="geometry" />
        </mxCell>
        <mxCell id="q2_rF_E4KVoeCvqUYvYB-24" value="Total_Confirmados" style="ellipse;whiteSpace=wrap;html=1;" vertex="1" parent="1">
          <mxGeometry x="571" y="490" width="185" height="50" as="geometry" />
        </mxCell>
        <mxCell id="q2_rF_E4KVoeCvqUYvYB-25" value="Curados" style="ellipse;whiteSpace=wrap;html=1;" vertex="1" parent="1">
          <mxGeometry x="441" y="540" width="185" height="50" as="geometry" />
        </mxCell>
        <mxCell id="q2_rF_E4KVoeCvqUYvYB-26" value="Fallecidos" style="ellipse;whiteSpace=wrap;html=1;" vertex="1" parent="1">
          <mxGeometry x="221" y="535" width="185" height="50" as="geometry" />
        </mxCell>
        <mxCell id="q2_rF_E4KVoeCvqUYvYB-27" value="" style="endArrow=none;html=1;rounded=0;entryX=1;entryY=0.5;entryDx=0;entryDy=0;exitX=0;exitY=0.5;exitDx=0;exitDy=0;" edge="1" parent="1" source="q2_rF_E4KVoeCvqUYvYB-14" target="q2_rF_E4KVoeCvqUYvYB-21">
          <mxGeometry width="50" height="50" relative="1" as="geometry">
            <mxPoint x="387.15000000000055" y="414" as="sourcePoint" />
            <mxPoint x="300.4249999999997" y="467.5" as="targetPoint" />
          </mxGeometry>
        </mxCell>
        <mxCell id="q2_rF_E4KVoeCvqUYvYB-28" value="" style="endArrow=none;html=1;rounded=0;entryX=1;entryY=0.25;entryDx=0;entryDy=0;exitX=0;exitY=0.5;exitDx=0;exitDy=0;" edge="1" parent="1" source="q2_rF_E4KVoeCvqUYvYB-22" target="q2_rF_E4KVoeCvqUYvYB-14">
          <mxGeometry width="50" height="50" relative="1" as="geometry">
            <mxPoint x="352.1500000000001" y="389" as="sourcePoint" />
            <mxPoint x="258.5" y="389.9999999999998" as="targetPoint" />
          </mxGeometry>
        </mxCell>
        <mxCell id="q2_rF_E4KVoeCvqUYvYB-29" value="" style="endArrow=none;html=1;rounded=0;entryX=0.5;entryY=1;entryDx=0;entryDy=0;exitX=0.5;exitY=0;exitDx=0;exitDy=0;" edge="1" parent="1" source="q2_rF_E4KVoeCvqUYvYB-26" target="q2_rF_E4KVoeCvqUYvYB-14">
          <mxGeometry width="50" height="50" relative="1" as="geometry">
            <mxPoint x="620.0000000000045" y="299.9999999999998" as="sourcePoint" />
            <mxPoint x="502.1500000000001" y="366.5" as="targetPoint" />
          </mxGeometry>
        </mxCell>
        <mxCell id="q2_rF_E4KVoeCvqUYvYB-30" value="" style="endArrow=none;html=1;rounded=0;entryX=0.75;entryY=1;entryDx=0;entryDy=0;exitX=0.5;exitY=0;exitDx=0;exitDy=0;" edge="1" parent="1" source="q2_rF_E4KVoeCvqUYvYB-25" target="q2_rF_E4KVoeCvqUYvYB-14">
          <mxGeometry width="50" height="50" relative="1" as="geometry">
            <mxPoint x="323.5" y="544.9999999999998" as="sourcePoint" />
            <mxPoint x="422.1500000000001" y="434" as="targetPoint" />
          </mxGeometry>
        </mxCell>
        <mxCell id="q2_rF_E4KVoeCvqUYvYB-31" value="" style="endArrow=none;html=1;rounded=0;entryX=1;entryY=0.75;entryDx=0;entryDy=0;exitX=0;exitY=0.5;exitDx=0;exitDy=0;" edge="1" parent="1" source="q2_rF_E4KVoeCvqUYvYB-20" target="q2_rF_E4KVoeCvqUYvYB-14">
          <mxGeometry width="50" height="50" relative="1" as="geometry">
            <mxPoint x="333.5" y="554.9999999999998" as="sourcePoint" />
            <mxPoint x="432.1500000000001" y="444" as="targetPoint" />
          </mxGeometry>
        </mxCell>
        <mxCell id="q2_rF_E4KVoeCvqUYvYB-32" value="" style="endArrow=none;html=1;rounded=0;entryX=1;entryY=1;entryDx=0;entryDy=0;exitX=0;exitY=0.5;exitDx=0;exitDy=0;" edge="1" parent="1" source="q2_rF_E4KVoeCvqUYvYB-23" target="q2_rF_E4KVoeCvqUYvYB-14">
          <mxGeometry width="50" height="50" relative="1" as="geometry">
            <mxPoint x="343.5" y="564.9999999999998" as="sourcePoint" />
            <mxPoint x="442.1500000000001" y="454" as="targetPoint" />
          </mxGeometry>
        </mxCell>
        <mxCell id="q2_rF_E4KVoeCvqUYvYB-33" value="" style="endArrow=none;html=1;rounded=0;entryX=1;entryY=1;entryDx=0;entryDy=0;exitX=0;exitY=0;exitDx=0;exitDy=0;" edge="1" parent="1" source="q2_rF_E4KVoeCvqUYvYB-24" target="q2_rF_E4KVoeCvqUYvYB-14">
          <mxGeometry width="50" height="50" relative="1" as="geometry">
            <mxPoint x="353.5" y="574.9999999999998" as="sourcePoint" />
            <mxPoint x="452.1500000000001" y="464" as="targetPoint" />
          </mxGeometry>
        </mxCell>
      </root>
    </mxGraphModel>
  </diagram>
  <diagram id="QMB-lueqzwkMbr6FRNcu" name="FACT_A_FINANCIERA">
    <mxGraphModel dx="1673" dy="867" grid="1" gridSize="10" guides="1" tooltips="1" connect="1" arrows="1" fold="1" page="1" pageScale="1" pageWidth="1169" pageHeight="827" math="0" shadow="0">
      <root>
        <mxCell id="0" />
        <mxCell id="1" parent="0" />
        <mxCell id="V9veJoz5qz3uG5agsrDF-1" value="" style="rhombus;whiteSpace=wrap;html=1;" vertex="1" parent="1">
          <mxGeometry x="607" y="415" width="140" height="80" as="geometry" />
        </mxCell>
        <mxCell id="V9veJoz5qz3uG5agsrDF-2" value="PAIS" style="ellipse;whiteSpace=wrap;html=1;" vertex="1" parent="1">
          <mxGeometry x="100" y="425" width="100" height="40" as="geometry" />
        </mxCell>
        <mxCell id="V9veJoz5qz3uG5agsrDF-3" value="" style="endArrow=none;html=1;rounded=0;entryX=0.5;entryY=0;entryDx=0;entryDy=0;exitX=0.719;exitY=-0.039;exitDx=0;exitDy=0;exitPerimeter=0;" edge="1" parent="1" source="V9veJoz5qz3uG5agsrDF-2" target="V9veJoz5qz3uG5agsrDF-10">
          <mxGeometry width="50" height="50" relative="1" as="geometry">
            <mxPoint x="176" y="420" as="sourcePoint" />
            <mxPoint x="476" y="346.52" as="targetPoint" />
          </mxGeometry>
        </mxCell>
        <mxCell id="V9veJoz5qz3uG5agsrDF-4" value="&lt;u&gt;COD_PAIS&lt;/u&gt;" style="ellipse;whiteSpace=wrap;html=1;" vertex="1" parent="1">
          <mxGeometry x="296" y="420" width="100" height="40" as="geometry" />
        </mxCell>
        <mxCell id="V9veJoz5qz3uG5agsrDF-5" value="" style="endArrow=none;html=1;rounded=0;entryX=0.5;entryY=0;entryDx=0;entryDy=0;exitX=0.5;exitY=0;exitDx=0;exitDy=0;" edge="1" parent="1" source="V9veJoz5qz3uG5agsrDF-4" target="V9veJoz5qz3uG5agsrDF-10">
          <mxGeometry width="50" height="50" relative="1" as="geometry">
            <mxPoint x="56" y="256.52" as="sourcePoint" />
            <mxPoint x="426" y="171.51999999999998" as="targetPoint" />
          </mxGeometry>
        </mxCell>
        <mxCell id="V9veJoz5qz3uG5agsrDF-6" value="" style="endArrow=none;html=1;rounded=0;exitX=0.448;exitY=0.014;exitDx=0;exitDy=0;entryX=0.5;entryY=1;entryDx=0;entryDy=0;exitPerimeter=0;" edge="1" parent="1" source="V9veJoz5qz3uG5agsrDF-22" target="V9veJoz5qz3uG5agsrDF-14">
          <mxGeometry width="50" height="50" relative="1" as="geometry">
            <mxPoint x="686" y="150" as="sourcePoint" />
            <mxPoint x="566" y="130" as="targetPoint" />
          </mxGeometry>
        </mxCell>
        <mxCell id="V9veJoz5qz3uG5agsrDF-7" value="" style="endArrow=none;html=1;rounded=0;entryX=0.5;entryY=0;entryDx=0;entryDy=0;exitX=0;exitY=0.75;exitDx=0;exitDy=0;exitPerimeter=0;entryPerimeter=0;" edge="1" parent="1" source="V9veJoz5qz3uG5agsrDF-17" target="V9veJoz5qz3uG5agsrDF-22">
          <mxGeometry width="50" height="50" relative="1" as="geometry">
            <mxPoint x="836" y="180" as="sourcePoint" />
            <mxPoint x="756" y="230" as="targetPoint" />
          </mxGeometry>
        </mxCell>
        <mxCell id="V9veJoz5qz3uG5agsrDF-8" value="" style="endArrow=none;html=1;rounded=0;entryX=0.5;entryY=0;entryDx=0;entryDy=0;exitX=0.5;exitY=1;exitDx=0;exitDy=0;" edge="1" parent="1" source="V9veJoz5qz3uG5agsrDF-16" target="V9veJoz5qz3uG5agsrDF-22">
          <mxGeometry width="50" height="50" relative="1" as="geometry">
            <mxPoint x="726" y="150" as="sourcePoint" />
            <mxPoint x="726" y="210" as="targetPoint" />
          </mxGeometry>
        </mxCell>
        <mxCell id="V9veJoz5qz3uG5agsrDF-9" value="" style="endArrow=none;html=1;rounded=0;entryX=0.5;entryY=1;entryDx=0;entryDy=0;exitX=0.5;exitY=0;exitDx=0;exitDy=0;" edge="1" parent="1" source="V9veJoz5qz3uG5agsrDF-22" target="V9veJoz5qz3uG5agsrDF-15">
          <mxGeometry width="50" height="50" relative="1" as="geometry">
            <mxPoint x="766" y="410" as="sourcePoint" />
            <mxPoint x="656" y="335" as="targetPoint" />
          </mxGeometry>
        </mxCell>
        <mxCell id="V9veJoz5qz3uG5agsrDF-10" value="DIM_PAISES" style="rounded=0;whiteSpace=wrap;html=1;" vertex="1" parent="1">
          <mxGeometry x="186" y="290" width="120" height="60" as="geometry" />
        </mxCell>
        <mxCell id="V9veJoz5qz3uG5agsrDF-11" value="Pertenece" style="rhombus;whiteSpace=wrap;html=1;" vertex="1" parent="1">
          <mxGeometry x="386" y="290" width="120" height="60" as="geometry" />
        </mxCell>
        <mxCell id="V9veJoz5qz3uG5agsrDF-12" value="1:1" style="endArrow=none;html=1;rounded=0;entryX=0;entryY=0.5;entryDx=0;entryDy=0;exitX=1;exitY=0.5;exitDx=0;exitDy=0;" edge="1" parent="1" source="V9veJoz5qz3uG5agsrDF-11" target="V9veJoz5qz3uG5agsrDF-22">
          <mxGeometry width="50" height="50" relative="1" as="geometry">
            <mxPoint x="526" y="213.48000000000002" as="sourcePoint" />
            <mxPoint x="356" y="90" as="targetPoint" />
          </mxGeometry>
        </mxCell>
        <mxCell id="V9veJoz5qz3uG5agsrDF-13" value="0..N" style="endArrow=none;html=1;rounded=0;entryX=0;entryY=0.5;entryDx=0;entryDy=0;exitX=1;exitY=0.5;exitDx=0;exitDy=0;" edge="1" parent="1" source="V9veJoz5qz3uG5agsrDF-10" target="V9veJoz5qz3uG5agsrDF-11">
          <mxGeometry width="50" height="50" relative="1" as="geometry">
            <mxPoint x="276" y="306.52" as="sourcePoint" />
            <mxPoint x="326" y="256.52" as="targetPoint" />
          </mxGeometry>
        </mxCell>
        <mxCell id="V9veJoz5qz3uG5agsrDF-14" value="FECHA&lt;br&gt;---------" style="ellipse;whiteSpace=wrap;html=1;" vertex="1" parent="1">
          <mxGeometry x="446" y="80" width="100" height="40" as="geometry" />
        </mxCell>
        <mxCell id="V9veJoz5qz3uG5agsrDF-15" value="APERTURA" style="ellipse;whiteSpace=wrap;html=1;" vertex="1" parent="1">
          <mxGeometry x="566" y="50" width="100" height="40" as="geometry" />
        </mxCell>
        <mxCell id="V9veJoz5qz3uG5agsrDF-16" value="MAXIMO" style="ellipse;whiteSpace=wrap;html=1;" vertex="1" parent="1">
          <mxGeometry x="706" y="50" width="100" height="40" as="geometry" />
        </mxCell>
        <mxCell id="V9veJoz5qz3uG5agsrDF-17" value="MINIMO" style="ellipse;whiteSpace=wrap;html=1;" vertex="1" parent="1">
          <mxGeometry x="866" y="110" width="100" height="40" as="geometry" />
        </mxCell>
        <mxCell id="V9veJoz5qz3uG5agsrDF-18" value="CIERRE" style="ellipse;whiteSpace=wrap;html=1;" vertex="1" parent="1">
          <mxGeometry x="916" y="210" width="100" height="40" as="geometry" />
        </mxCell>
        <mxCell id="V9veJoz5qz3uG5agsrDF-19" value="VOLUMEN" style="ellipse;whiteSpace=wrap;html=1;" vertex="1" parent="1">
          <mxGeometry x="906" y="310" width="100" height="40" as="geometry" />
        </mxCell>
        <mxCell id="V9veJoz5qz3uG5agsrDF-20" value="" style="group" vertex="1" connectable="0" parent="1">
          <mxGeometry x="607" y="260" width="160" height="110" as="geometry" />
        </mxCell>
        <mxCell id="V9veJoz5qz3uG5agsrDF-21" value="" style="rounded=0;whiteSpace=wrap;html=1;" vertex="1" parent="V9veJoz5qz3uG5agsrDF-20">
          <mxGeometry x="-25" width="185" height="110" as="geometry" />
        </mxCell>
        <mxCell id="V9veJoz5qz3uG5agsrDF-22" value="FACT_A_FINANCIERA" style="rounded=0;whiteSpace=wrap;html=1;" vertex="1" parent="V9veJoz5qz3uG5agsrDF-20">
          <mxGeometry y="20" width="140" height="70" as="geometry" />
        </mxCell>
        <mxCell id="V9veJoz5qz3uG5agsrDF-23" value="" style="endArrow=none;html=1;rounded=0;entryX=0;entryY=0.5;entryDx=0;entryDy=0;exitX=1;exitY=0;exitDx=0;exitDy=0;" edge="1" parent="1" source="V9veJoz5qz3uG5agsrDF-21" target="V9veJoz5qz3uG5agsrDF-18">
          <mxGeometry width="50" height="50" relative="1" as="geometry">
            <mxPoint x="776" y="440" as="sourcePoint" />
            <mxPoint x="826" y="390" as="targetPoint" />
          </mxGeometry>
        </mxCell>
        <mxCell id="V9veJoz5qz3uG5agsrDF-24" value="" style="endArrow=none;html=1;rounded=0;entryX=0;entryY=0;entryDx=0;entryDy=0;exitX=1;exitY=0.5;exitDx=0;exitDy=0;" edge="1" parent="1" source="V9veJoz5qz3uG5agsrDF-21" target="V9veJoz5qz3uG5agsrDF-19">
          <mxGeometry width="50" height="50" relative="1" as="geometry">
            <mxPoint x="806" y="335" as="sourcePoint" />
            <mxPoint x="546" y="240" as="targetPoint" />
          </mxGeometry>
        </mxCell>
        <mxCell id="V9veJoz5qz3uG5agsrDF-25" value="&lt;u&gt;ID_MERCADO&lt;/u&gt;" style="ellipse;whiteSpace=wrap;html=1;" vertex="1" parent="1">
          <mxGeometry x="435" y="669" width="100" height="40" as="geometry" />
        </mxCell>
        <mxCell id="V9veJoz5qz3uG5agsrDF-26" value="" style="endArrow=none;html=1;rounded=0;entryX=0.5;entryY=0;entryDx=0;entryDy=0;exitX=0.5;exitY=0;exitDx=0;exitDy=0;" edge="1" parent="1" source="V9veJoz5qz3uG5agsrDF-25" target="V9veJoz5qz3uG5agsrDF-29">
          <mxGeometry width="50" height="50" relative="1" as="geometry">
            <mxPoint x="615" y="749" as="sourcePoint" />
            <mxPoint x="885" y="595.52" as="targetPoint" />
          </mxGeometry>
        </mxCell>
        <mxCell id="V9veJoz5qz3uG5agsrDF-27" value="MERCADO" style="ellipse;whiteSpace=wrap;html=1;" vertex="1" parent="1">
          <mxGeometry x="627" y="669" width="100" height="40" as="geometry" />
        </mxCell>
        <mxCell id="V9veJoz5qz3uG5agsrDF-28" value="" style="endArrow=none;html=1;rounded=0;entryX=0.5;entryY=0;entryDx=0;entryDy=0;exitX=0.5;exitY=0;exitDx=0;exitDy=0;" edge="1" parent="1" source="V9veJoz5qz3uG5agsrDF-27" target="V9veJoz5qz3uG5agsrDF-29">
          <mxGeometry width="50" height="50" relative="1" as="geometry">
            <mxPoint x="465" y="505.52" as="sourcePoint" />
            <mxPoint x="835" y="420.52" as="targetPoint" />
          </mxGeometry>
        </mxCell>
        <mxCell id="V9veJoz5qz3uG5agsrDF-29" value="DIM_MERCADOS" style="rounded=0;whiteSpace=wrap;html=1;" vertex="1" parent="1">
          <mxGeometry x="617" y="560" width="120" height="60" as="geometry" />
        </mxCell>
        <mxCell id="V9veJoz5qz3uG5agsrDF-30" value="DESCRIPCION" style="ellipse;whiteSpace=wrap;html=1;" vertex="1" parent="1">
          <mxGeometry x="806" y="669" width="100" height="40" as="geometry" />
        </mxCell>
        <mxCell id="V9veJoz5qz3uG5agsrDF-31" value="" style="endArrow=none;html=1;rounded=0;entryX=1;entryY=0.5;entryDx=0;entryDy=0;exitX=0.5;exitY=0;exitDx=0;exitDy=0;" edge="1" parent="1" source="V9veJoz5qz3uG5agsrDF-30" target="V9veJoz5qz3uG5agsrDF-29">
          <mxGeometry width="50" height="50" relative="1" as="geometry">
            <mxPoint x="566" y="505.52" as="sourcePoint" />
            <mxPoint x="806" y="559" as="targetPoint" />
          </mxGeometry>
        </mxCell>
        <mxCell id="V9veJoz5qz3uG5agsrDF-32" value="REGISTRA" style="rhombus;whiteSpace=wrap;html=1;" vertex="1" parent="1">
          <mxGeometry x="617" y="425" width="120" height="60" as="geometry" />
        </mxCell>
        <mxCell id="V9veJoz5qz3uG5agsrDF-33" value="" style="endArrow=none;html=1;rounded=0;entryX=0.5;entryY=1;entryDx=0;entryDy=0;exitX=0.5;exitY=0;exitDx=0;exitDy=0;" edge="1" parent="1" source="V9veJoz5qz3uG5agsrDF-32" target="V9veJoz5qz3uG5agsrDF-22">
          <mxGeometry width="50" height="50" relative="1" as="geometry">
            <mxPoint x="356" y="430" as="sourcePoint" />
            <mxPoint x="256" y="300" as="targetPoint" />
          </mxGeometry>
        </mxCell>
        <mxCell id="V9veJoz5qz3uG5agsrDF-34" value="1..1" style="edgeLabel;html=1;align=center;verticalAlign=middle;resizable=0;points=[];" vertex="1" connectable="0" parent="V9veJoz5qz3uG5agsrDF-33">
          <mxGeometry x="-0.4242" relative="1" as="geometry">
            <mxPoint as="offset" />
          </mxGeometry>
        </mxCell>
        <mxCell id="V9veJoz5qz3uG5agsrDF-35" value="" style="endArrow=none;html=1;rounded=0;entryX=0.5;entryY=1;entryDx=0;entryDy=0;exitX=0.5;exitY=0;exitDx=0;exitDy=0;" edge="1" parent="1" source="V9veJoz5qz3uG5agsrDF-29" target="V9veJoz5qz3uG5agsrDF-32">
          <mxGeometry width="50" height="50" relative="1" as="geometry">
            <mxPoint x="576" y="415" as="sourcePoint" />
            <mxPoint x="626" y="365" as="targetPoint" />
          </mxGeometry>
        </mxCell>
        <mxCell id="V9veJoz5qz3uG5agsrDF-36" value="0..N" style="edgeLabel;html=1;align=center;verticalAlign=middle;resizable=0;points=[];" vertex="1" connectable="0" parent="V9veJoz5qz3uG5agsrDF-35">
          <mxGeometry x="-0.4362" y="2" relative="1" as="geometry">
            <mxPoint as="offset" />
          </mxGeometry>
        </mxCell>
      </root>
    </mxGraphModel>
  </diagram>
  <diagram id="kxbSdNKX4NSK-qYqbCen" name="FACT_COVID_P">
    <mxGraphModel dx="2361" dy="921" grid="1" gridSize="10" guides="1" tooltips="1" connect="1" arrows="1" fold="1" page="1" pageScale="1" pageWidth="583" pageHeight="827" math="0" shadow="0">
      <root>
        <mxCell id="0" />
        <mxCell id="1" parent="0" />
        <mxCell id="gppZokB7CRQZHfj-MRDj-94" value="" style="rhombus;whiteSpace=wrap;html=1;" vertex="1" parent="1">
          <mxGeometry x="248.32999999999998" y="342" width="143.34" height="85.2" as="geometry" />
        </mxCell>
        <mxCell id="gppZokB7CRQZHfj-MRDj-93" value="" style="rhombus;whiteSpace=wrap;html=1;" vertex="1" parent="1">
          <mxGeometry x="200" y="420.25" width="143.34" height="85.2" as="geometry" />
        </mxCell>
        <mxCell id="gppZokB7CRQZHfj-MRDj-1" value="" style="rhombus;whiteSpace=wrap;html=1;" vertex="1" parent="1">
          <mxGeometry x="528.4299999999998" y="290" width="150" height="80" as="geometry" />
        </mxCell>
        <mxCell id="gppZokB7CRQZHfj-MRDj-2" value="" style="rounded=0;whiteSpace=wrap;html=1;" vertex="1" parent="1">
          <mxGeometry x="521" y="421.9" width="140" height="80" as="geometry" />
        </mxCell>
        <mxCell id="gppZokB7CRQZHfj-MRDj-4" style="rounded=0;orthogonalLoop=1;jettySize=auto;html=1;exitX=0.5;exitY=1;exitDx=0;exitDy=0;entryX=0.5;entryY=0;entryDx=0;entryDy=0;endArrow=none;endFill=0;" edge="1" parent="1" source="gppZokB7CRQZHfj-MRDj-6" target="gppZokB7CRQZHfj-MRDj-1">
          <mxGeometry relative="1" as="geometry" />
        </mxCell>
        <mxCell id="gppZokB7CRQZHfj-MRDj-5" value="0..N" style="edgeLabel;html=1;align=center;verticalAlign=middle;resizable=0;points=[];" vertex="1" connectable="0" parent="gppZokB7CRQZHfj-MRDj-4">
          <mxGeometry x="-0.6" y="-2" relative="1" as="geometry">
            <mxPoint x="2" y="8" as="offset" />
          </mxGeometry>
        </mxCell>
        <mxCell id="gppZokB7CRQZHfj-MRDj-6" value="DIM_PROVINCIAS" style="rounded=0;whiteSpace=wrap;html=1;" vertex="1" parent="1">
          <mxGeometry x="545" y="160" width="120" height="60" as="geometry" />
        </mxCell>
        <mxCell id="gppZokB7CRQZHfj-MRDj-7" value="DIM_CCAA" style="rounded=0;whiteSpace=wrap;html=1;" vertex="1" parent="1">
          <mxGeometry x="1009" y="431.9" width="120" height="60" as="geometry" />
        </mxCell>
        <mxCell id="gppZokB7CRQZHfj-MRDj-8" value="PROVINCIA" style="ellipse;whiteSpace=wrap;html=1;" vertex="1" parent="1">
          <mxGeometry x="584.5" y="10" width="100" height="40" as="geometry" />
        </mxCell>
        <mxCell id="gppZokB7CRQZHfj-MRDj-9" value="&lt;u&gt;COD_PROVINCIA&lt;/u&gt;" style="ellipse;whiteSpace=wrap;html=1;" vertex="1" parent="1">
          <mxGeometry x="675" y="40" width="120" height="40" as="geometry" />
        </mxCell>
        <mxCell id="gppZokB7CRQZHfj-MRDj-10" value="" style="endArrow=none;html=1;rounded=0;entryX=0;entryY=1;entryDx=0;entryDy=0;exitX=0.5;exitY=0;exitDx=0;exitDy=0;" edge="1" parent="1" source="gppZokB7CRQZHfj-MRDj-6" target="gppZokB7CRQZHfj-MRDj-9">
          <mxGeometry width="50" height="50" relative="1" as="geometry">
            <mxPoint x="785" y="300" as="sourcePoint" />
            <mxPoint x="835" y="250" as="targetPoint" />
          </mxGeometry>
        </mxCell>
        <mxCell id="gppZokB7CRQZHfj-MRDj-11" value="" style="endArrow=none;html=1;rounded=0;entryX=0.5;entryY=1;entryDx=0;entryDy=0;exitX=0.5;exitY=0;exitDx=0;exitDy=0;" edge="1" parent="1" source="gppZokB7CRQZHfj-MRDj-6" target="gppZokB7CRQZHfj-MRDj-8">
          <mxGeometry width="50" height="50" relative="1" as="geometry">
            <mxPoint x="785" y="300" as="sourcePoint" />
            <mxPoint x="835" y="250" as="targetPoint" />
          </mxGeometry>
        </mxCell>
        <mxCell id="gppZokB7CRQZHfj-MRDj-12" value="CCAA" style="ellipse;whiteSpace=wrap;html=1;" vertex="1" parent="1">
          <mxGeometry x="920" y="525" width="100" height="40" as="geometry" />
        </mxCell>
        <mxCell id="gppZokB7CRQZHfj-MRDj-13" value="&lt;u&gt;COD_CCAA&lt;/u&gt;" style="ellipse;whiteSpace=wrap;html=1;" vertex="1" parent="1">
          <mxGeometry x="1050" y="565" width="100" height="40" as="geometry" />
        </mxCell>
        <mxCell id="gppZokB7CRQZHfj-MRDj-14" value="" style="endArrow=none;html=1;rounded=0;exitX=0.25;exitY=1;exitDx=0;exitDy=0;" edge="1" parent="1" source="gppZokB7CRQZHfj-MRDj-7" target="gppZokB7CRQZHfj-MRDj-12">
          <mxGeometry width="50" height="50" relative="1" as="geometry">
            <mxPoint x="945" y="415" as="sourcePoint" />
            <mxPoint x="995" y="365" as="targetPoint" />
          </mxGeometry>
        </mxCell>
        <mxCell id="gppZokB7CRQZHfj-MRDj-15" value="" style="endArrow=none;html=1;rounded=0;entryX=0.5;entryY=0;entryDx=0;entryDy=0;exitX=0.75;exitY=1;exitDx=0;exitDy=0;" edge="1" parent="1" source="gppZokB7CRQZHfj-MRDj-7" target="gppZokB7CRQZHfj-MRDj-13">
          <mxGeometry width="50" height="50" relative="1" as="geometry">
            <mxPoint x="1145" y="435" as="sourcePoint" />
            <mxPoint x="1195" y="385" as="targetPoint" />
          </mxGeometry>
        </mxCell>
        <mxCell id="gppZokB7CRQZHfj-MRDj-20" value="FACT_COVID_P" style="rounded=0;whiteSpace=wrap;html=1;" vertex="1" parent="1">
          <mxGeometry x="531" y="431.9" width="120" height="60" as="geometry" />
        </mxCell>
        <mxCell id="gppZokB7CRQZHfj-MRDj-21" value="FECHA&lt;br&gt;-------------" style="ellipse;whiteSpace=wrap;html=1;" vertex="1" parent="1">
          <mxGeometry x="360" y="250" width="100" height="40" as="geometry" />
        </mxCell>
        <mxCell id="gppZokB7CRQZHfj-MRDj-22" value="" style="endArrow=none;html=1;rounded=0;entryX=0.5;entryY=1;entryDx=0;entryDy=0;exitX=0;exitY=0;exitDx=0;exitDy=0;" edge="1" parent="1" source="gppZokB7CRQZHfj-MRDj-2" target="gppZokB7CRQZHfj-MRDj-21">
          <mxGeometry width="50" height="50" relative="1" as="geometry">
            <mxPoint x="595.9999999999995" y="606.8999999999997" as="sourcePoint" />
            <mxPoint x="700.8544793961578" y="657.6744321365401" as="targetPoint" />
          </mxGeometry>
        </mxCell>
        <mxCell id="gppZokB7CRQZHfj-MRDj-23" value="Latitud" style="ellipse;whiteSpace=wrap;html=1;" vertex="1" parent="1">
          <mxGeometry x="330" y="80" width="100" height="40" as="geometry" />
        </mxCell>
        <mxCell id="gppZokB7CRQZHfj-MRDj-24" value="Longitud" style="ellipse;whiteSpace=wrap;html=1;" vertex="1" parent="1">
          <mxGeometry x="465" y="20" width="100" height="40" as="geometry" />
        </mxCell>
        <mxCell id="gppZokB7CRQZHfj-MRDj-25" value="" style="endArrow=none;html=1;rounded=0;entryX=0.5;entryY=1;entryDx=0;entryDy=0;exitX=0.397;exitY=-0.018;exitDx=0;exitDy=0;exitPerimeter=0;" edge="1" parent="1" source="gppZokB7CRQZHfj-MRDj-6" target="gppZokB7CRQZHfj-MRDj-24">
          <mxGeometry width="50" height="50" relative="1" as="geometry">
            <mxPoint x="614.9999999999995" y="169.99999999999977" as="sourcePoint" />
            <mxPoint x="739.8544793961437" y="114.22556786346536" as="targetPoint" />
          </mxGeometry>
        </mxCell>
        <mxCell id="gppZokB7CRQZHfj-MRDj-26" value="" style="endArrow=none;html=1;rounded=0;entryX=1;entryY=1;entryDx=0;entryDy=0;" edge="1" parent="1" source="gppZokB7CRQZHfj-MRDj-6" target="gppZokB7CRQZHfj-MRDj-23">
          <mxGeometry width="50" height="50" relative="1" as="geometry">
            <mxPoint x="624.9999999999995" y="179.99999999999977" as="sourcePoint" />
            <mxPoint x="749.8544793961437" y="124.22556786346536" as="targetPoint" />
          </mxGeometry>
        </mxCell>
        <mxCell id="gppZokB7CRQZHfj-MRDj-27" value="Registra" style="rhombus;whiteSpace=wrap;html=1;" vertex="1" parent="1">
          <mxGeometry x="544.4299999999998" y="302" width="120" height="60" as="geometry" />
        </mxCell>
        <mxCell id="gppZokB7CRQZHfj-MRDj-28" value="PAIS" style="ellipse;whiteSpace=wrap;html=1;" vertex="1" parent="1">
          <mxGeometry x="315" y="740" width="100" height="40" as="geometry" />
        </mxCell>
        <mxCell id="gppZokB7CRQZHfj-MRDj-29" value="" style="endArrow=none;html=1;rounded=0;entryX=0;entryY=0.5;entryDx=0;entryDy=0;exitX=1;exitY=0.5;exitDx=0;exitDy=0;" edge="1" parent="1" source="gppZokB7CRQZHfj-MRDj-28" target="gppZokB7CRQZHfj-MRDj-33">
          <mxGeometry width="50" height="50" relative="1" as="geometry">
            <mxPoint x="474" y="1040" as="sourcePoint" />
            <mxPoint x="774" y="966.52" as="targetPoint" />
          </mxGeometry>
        </mxCell>
        <mxCell id="gppZokB7CRQZHfj-MRDj-30" value="&lt;u&gt;COD_PAIS&lt;/u&gt;" style="ellipse;whiteSpace=wrap;html=1;" vertex="1" parent="1">
          <mxGeometry x="740" y="740" width="100" height="40" as="geometry" />
        </mxCell>
        <mxCell id="gppZokB7CRQZHfj-MRDj-31" value="" style="endArrow=none;html=1;rounded=0;entryX=1;entryY=0.5;entryDx=0;entryDy=0;exitX=0;exitY=0.5;exitDx=0;exitDy=0;" edge="1" parent="1" source="gppZokB7CRQZHfj-MRDj-30" target="gppZokB7CRQZHfj-MRDj-33">
          <mxGeometry width="50" height="50" relative="1" as="geometry">
            <mxPoint x="354" y="876.52" as="sourcePoint" />
            <mxPoint x="724" y="791.52" as="targetPoint" />
          </mxGeometry>
        </mxCell>
        <mxCell id="gppZokB7CRQZHfj-MRDj-32" value="Registra" style="rhombus;whiteSpace=wrap;html=1;" vertex="1" parent="1">
          <mxGeometry x="544.4299999999998" y="302" width="120" height="60" as="geometry" />
        </mxCell>
        <mxCell id="gppZokB7CRQZHfj-MRDj-33" value="DIM_PAISES" style="rounded=0;whiteSpace=wrap;html=1;" vertex="1" parent="1">
          <mxGeometry x="525" y="730" width="120" height="60" as="geometry" />
        </mxCell>
        <mxCell id="gppZokB7CRQZHfj-MRDj-34" value="1..1" style="endArrow=none;html=1;rounded=0;entryX=0.5;entryY=1;entryDx=0;entryDy=0;exitX=0.586;exitY=-0.017;exitDx=0;exitDy=0;exitPerimeter=0;" edge="1" parent="1" source="gppZokB7CRQZHfj-MRDj-2" target="gppZokB7CRQZHfj-MRDj-1">
          <mxGeometry width="50" height="50" relative="1" as="geometry">
            <mxPoint x="720" y="451.9" as="sourcePoint" />
            <mxPoint x="658.9999999999993" y="370.0000000000001" as="targetPoint" />
          </mxGeometry>
        </mxCell>
        <mxCell id="gppZokB7CRQZHfj-MRDj-35" value="NUM_DEFUNCIONES" style="ellipse;whiteSpace=wrap;html=1;" vertex="1" parent="1">
          <mxGeometry x="776" y="302" width="140" height="40" as="geometry" />
        </mxCell>
        <mxCell id="gppZokB7CRQZHfj-MRDj-36" value="" style="endArrow=none;html=1;rounded=0;entryX=0;entryY=1;entryDx=0;entryDy=0;exitX=1;exitY=0.25;exitDx=0;exitDy=0;" edge="1" parent="1" source="gppZokB7CRQZHfj-MRDj-2" target="gppZokB7CRQZHfj-MRDj-35">
          <mxGeometry width="50" height="50" relative="1" as="geometry">
            <mxPoint x="741" y="471.9" as="sourcePoint" />
            <mxPoint x="725.9999999999995" y="386.9" as="targetPoint" />
          </mxGeometry>
        </mxCell>
        <mxCell id="gppZokB7CRQZHfj-MRDj-37" value="NUM_UCI" style="ellipse;whiteSpace=wrap;html=1;" vertex="1" parent="1">
          <mxGeometry x="710" y="585" width="100" height="40" as="geometry" />
        </mxCell>
        <mxCell id="gppZokB7CRQZHfj-MRDj-38" value="" style="endArrow=none;html=1;rounded=0;entryX=0.5;entryY=0;entryDx=0;entryDy=0;exitX=1;exitY=0.75;exitDx=0;exitDy=0;" edge="1" parent="1" source="gppZokB7CRQZHfj-MRDj-2" target="gppZokB7CRQZHfj-MRDj-37">
          <mxGeometry width="50" height="50" relative="1" as="geometry">
            <mxPoint x="651.0000000000036" y="551.9" as="sourcePoint" />
            <mxPoint x="725.9999999999995" y="461.9" as="targetPoint" />
          </mxGeometry>
        </mxCell>
        <mxCell id="gppZokB7CRQZHfj-MRDj-39" value="NUM_HOSPITALIZACIONES" style="ellipse;whiteSpace=wrap;html=1;" vertex="1" parent="1">
          <mxGeometry x="310" y="580" width="170" height="50" as="geometry" />
        </mxCell>
        <mxCell id="gppZokB7CRQZHfj-MRDj-40" value="" style="endArrow=none;html=1;rounded=0;entryX=1;entryY=0;entryDx=0;entryDy=0;exitX=0;exitY=1;exitDx=0;exitDy=0;" edge="1" parent="1" source="gppZokB7CRQZHfj-MRDj-2" target="gppZokB7CRQZHfj-MRDj-39">
          <mxGeometry width="50" height="50" relative="1" as="geometry">
            <mxPoint x="651" y="571.9" as="sourcePoint" />
            <mxPoint x="660.9999999999995" y="503.41999999999996" as="targetPoint" />
          </mxGeometry>
        </mxCell>
        <mxCell id="gppZokB7CRQZHfj-MRDj-41" value="NUM_CASOS" style="ellipse;whiteSpace=wrap;html=1;" vertex="1" parent="1">
          <mxGeometry x="230" y="534" width="100" height="40" as="geometry" />
        </mxCell>
        <mxCell id="gppZokB7CRQZHfj-MRDj-42" value="" style="endArrow=none;html=1;rounded=0;entryX=1;entryY=0.5;entryDx=0;entryDy=0;exitX=0;exitY=0.75;exitDx=0;exitDy=0;" edge="1" parent="1" source="gppZokB7CRQZHfj-MRDj-2" target="gppZokB7CRQZHfj-MRDj-41">
          <mxGeometry width="50" height="50" relative="1" as="geometry">
            <mxPoint x="621" y="541.9" as="sourcePoint" />
            <mxPoint x="530.9999999999995" y="523.42" as="targetPoint" />
          </mxGeometry>
        </mxCell>
        <mxCell id="gppZokB7CRQZHfj-MRDj-61" value="Pertenece" style="rhombus;whiteSpace=wrap;html=1;" vertex="1" parent="1">
          <mxGeometry x="776.0000000000001" y="430.95" width="120" height="61.9" as="geometry" />
        </mxCell>
        <mxCell id="gppZokB7CRQZHfj-MRDj-62" value="" style="endArrow=none;html=1;rounded=0;entryX=0;entryY=0.5;entryDx=0;entryDy=0;exitX=1;exitY=0.5;exitDx=0;exitDy=0;" edge="1" parent="1" source="gppZokB7CRQZHfj-MRDj-61" target="gppZokB7CRQZHfj-MRDj-7">
          <mxGeometry width="50" height="50" relative="1" as="geometry">
            <mxPoint x="1100" y="450" as="sourcePoint" />
            <mxPoint x="1150" y="400" as="targetPoint" />
          </mxGeometry>
        </mxCell>
        <mxCell id="gppZokB7CRQZHfj-MRDj-63" value="1..N" style="edgeLabel;html=1;align=center;verticalAlign=middle;resizable=0;points=[];" vertex="1" connectable="0" parent="gppZokB7CRQZHfj-MRDj-62">
          <mxGeometry x="-0.3368" y="-2" relative="1" as="geometry">
            <mxPoint as="offset" />
          </mxGeometry>
        </mxCell>
        <mxCell id="gppZokB7CRQZHfj-MRDj-64" value="" style="endArrow=none;html=1;rounded=0;exitX=1;exitY=0.5;exitDx=0;exitDy=0;" edge="1" parent="1" source="gppZokB7CRQZHfj-MRDj-2" target="gppZokB7CRQZHfj-MRDj-61">
          <mxGeometry width="50" height="50" relative="1" as="geometry">
            <mxPoint x="710" y="453.9300000000002" as="sourcePoint" />
            <mxPoint x="880" y="456.08000000000027" as="targetPoint" />
          </mxGeometry>
        </mxCell>
        <mxCell id="gppZokB7CRQZHfj-MRDj-65" value="1..1" style="edgeLabel;html=1;align=center;verticalAlign=middle;resizable=0;points=[];" vertex="1" connectable="0" parent="gppZokB7CRQZHfj-MRDj-64">
          <mxGeometry x="0.6568" relative="1" as="geometry">
            <mxPoint as="offset" />
          </mxGeometry>
        </mxCell>
        <mxCell id="gppZokB7CRQZHfj-MRDj-66" value="Pertenece" style="rhombus;whiteSpace=wrap;html=1;" vertex="1" parent="1">
          <mxGeometry x="528.4300000000001" y="620" width="120" height="61.9" as="geometry" />
        </mxCell>
        <mxCell id="gppZokB7CRQZHfj-MRDj-67" value="" style="endArrow=none;html=1;rounded=0;entryX=0.5;entryY=0;entryDx=0;entryDy=0;exitX=0.5;exitY=1;exitDx=0;exitDy=0;" edge="1" parent="1" source="gppZokB7CRQZHfj-MRDj-66" target="gppZokB7CRQZHfj-MRDj-33">
          <mxGeometry width="50" height="50" relative="1" as="geometry">
            <mxPoint x="662.5" y="687.15" as="sourcePoint" />
            <mxPoint x="806.5" y="699.0500000000001" as="targetPoint" />
          </mxGeometry>
        </mxCell>
        <mxCell id="gppZokB7CRQZHfj-MRDj-68" value="1..N" style="edgeLabel;html=1;align=center;verticalAlign=middle;resizable=0;points=[];" vertex="1" connectable="0" parent="gppZokB7CRQZHfj-MRDj-67">
          <mxGeometry x="-0.3368" y="-2" relative="1" as="geometry">
            <mxPoint as="offset" />
          </mxGeometry>
        </mxCell>
        <mxCell id="gppZokB7CRQZHfj-MRDj-69" value="" style="endArrow=none;html=1;rounded=0;exitX=0.5;exitY=1;exitDx=0;exitDy=0;entryX=0.5;entryY=0;entryDx=0;entryDy=0;" edge="1" parent="1" source="gppZokB7CRQZHfj-MRDj-2" target="gppZokB7CRQZHfj-MRDj-66">
          <mxGeometry width="50" height="50" relative="1" as="geometry">
            <mxPoint x="223.5" y="699.0500000000001" as="sourcePoint" />
            <mxPoint x="442.5" y="693.2300000000002" as="targetPoint" />
          </mxGeometry>
        </mxCell>
        <mxCell id="gppZokB7CRQZHfj-MRDj-70" value="1..1" style="edgeLabel;html=1;align=center;verticalAlign=middle;resizable=0;points=[];" vertex="1" connectable="0" parent="gppZokB7CRQZHfj-MRDj-69">
          <mxGeometry x="0.6568" relative="1" as="geometry">
            <mxPoint as="offset" />
          </mxGeometry>
        </mxCell>
        <mxCell id="gppZokB7CRQZHfj-MRDj-71" value="DIM_GRUPO_EDAD" style="rounded=0;whiteSpace=wrap;html=1;" vertex="1" parent="1">
          <mxGeometry x="-30" y="430.95" width="120" height="60" as="geometry" />
        </mxCell>
        <mxCell id="gppZokB7CRQZHfj-MRDj-72" value="DIM_SEXO" style="rounded=0;whiteSpace=wrap;html=1;" vertex="1" parent="1">
          <mxGeometry x="40" y="260" width="120" height="60" as="geometry" />
        </mxCell>
        <mxCell id="gppZokB7CRQZHfj-MRDj-74" value="Tiene" style="rhombus;whiteSpace=wrap;html=1;" vertex="1" parent="1">
          <mxGeometry x="260.00000000000006" y="352" width="120" height="61.9" as="geometry" />
        </mxCell>
        <mxCell id="gppZokB7CRQZHfj-MRDj-75" value="" style="endArrow=none;html=1;rounded=0;entryX=1;entryY=0.5;entryDx=0;entryDy=0;exitX=0;exitY=0;exitDx=0;exitDy=0;" edge="1" parent="1" source="gppZokB7CRQZHfj-MRDj-74" target="gppZokB7CRQZHfj-MRDj-72">
          <mxGeometry width="50" height="50" relative="1" as="geometry">
            <mxPoint x="531" y="431.9000000000001" as="sourcePoint" />
            <mxPoint x="420.00000000000045" y="300" as="targetPoint" />
          </mxGeometry>
        </mxCell>
        <mxCell id="gppZokB7CRQZHfj-MRDj-87" value="1..N" style="edgeLabel;html=1;align=center;verticalAlign=middle;resizable=0;points=[];" vertex="1" connectable="0" parent="gppZokB7CRQZHfj-MRDj-75">
          <mxGeometry x="0.2027" y="1" relative="1" as="geometry">
            <mxPoint as="offset" />
          </mxGeometry>
        </mxCell>
        <mxCell id="gppZokB7CRQZHfj-MRDj-76" value="" style="endArrow=none;html=1;rounded=0;entryX=0.007;entryY=0.354;entryDx=0;entryDy=0;entryPerimeter=0;exitX=0.84;exitY=0.658;exitDx=0;exitDy=0;exitPerimeter=0;" edge="1" parent="1" source="gppZokB7CRQZHfj-MRDj-74" target="gppZokB7CRQZHfj-MRDj-2">
          <mxGeometry width="50" height="50" relative="1" as="geometry">
            <mxPoint x="320" y="510" as="sourcePoint" />
            <mxPoint x="370" y="460" as="targetPoint" />
          </mxGeometry>
        </mxCell>
        <mxCell id="gppZokB7CRQZHfj-MRDj-86" value="1..1" style="edgeLabel;html=1;align=center;verticalAlign=middle;resizable=0;points=[];" vertex="1" connectable="0" parent="gppZokB7CRQZHfj-MRDj-76">
          <mxGeometry x="-0.2033" y="-2" relative="1" as="geometry">
            <mxPoint x="-1" as="offset" />
          </mxGeometry>
        </mxCell>
        <mxCell id="gppZokB7CRQZHfj-MRDj-77" value="&lt;u&gt;ID_SEXO&lt;/u&gt;" style="ellipse;whiteSpace=wrap;html=1;" vertex="1" parent="1">
          <mxGeometry y="140" width="100" height="40" as="geometry" />
        </mxCell>
        <mxCell id="gppZokB7CRQZHfj-MRDj-78" value="COD_SEXO" style="ellipse;whiteSpace=wrap;html=1;" vertex="1" parent="1">
          <mxGeometry x="-130" y="200" width="100" height="40" as="geometry" />
        </mxCell>
        <mxCell id="gppZokB7CRQZHfj-MRDj-79" value="SEXO" style="ellipse;whiteSpace=wrap;html=1;" vertex="1" parent="1">
          <mxGeometry x="-150" y="302" width="100" height="40" as="geometry" />
        </mxCell>
        <mxCell id="gppZokB7CRQZHfj-MRDj-80" value="" style="endArrow=none;html=1;rounded=0;entryX=0.5;entryY=1;entryDx=0;entryDy=0;exitX=0.5;exitY=0;exitDx=0;exitDy=0;" edge="1" parent="1" source="gppZokB7CRQZHfj-MRDj-72" target="gppZokB7CRQZHfj-MRDj-77">
          <mxGeometry width="50" height="50" relative="1" as="geometry">
            <mxPoint x="285.00000000000045" y="387.47500000000014" as="sourcePoint" />
            <mxPoint x="169.99999999999955" y="300" as="targetPoint" />
          </mxGeometry>
        </mxCell>
        <mxCell id="gppZokB7CRQZHfj-MRDj-81" value="" style="endArrow=none;html=1;rounded=0;entryX=1;entryY=0.5;entryDx=0;entryDy=0;exitX=0;exitY=0;exitDx=0;exitDy=0;" edge="1" parent="1" source="gppZokB7CRQZHfj-MRDj-72" target="gppZokB7CRQZHfj-MRDj-78">
          <mxGeometry width="50" height="50" relative="1" as="geometry">
            <mxPoint x="109.99999999999955" y="270" as="sourcePoint" />
            <mxPoint x="59.999999999999545" y="190" as="targetPoint" />
          </mxGeometry>
        </mxCell>
        <mxCell id="gppZokB7CRQZHfj-MRDj-83" value="" style="endArrow=none;html=1;rounded=0;entryX=1;entryY=0.5;entryDx=0;entryDy=0;exitX=0;exitY=0.75;exitDx=0;exitDy=0;" edge="1" parent="1" source="gppZokB7CRQZHfj-MRDj-72" target="gppZokB7CRQZHfj-MRDj-79">
          <mxGeometry width="50" height="50" relative="1" as="geometry">
            <mxPoint x="49.999999999999545" y="270" as="sourcePoint" />
            <mxPoint x="-20.000000000000455" y="230" as="targetPoint" />
          </mxGeometry>
        </mxCell>
        <mxCell id="gppZokB7CRQZHfj-MRDj-84" value="Almacena" style="rhombus;whiteSpace=wrap;html=1;" vertex="1" parent="1">
          <mxGeometry x="220" y="431.9" width="100" height="61.9" as="geometry" />
        </mxCell>
        <mxCell id="gppZokB7CRQZHfj-MRDj-85" value="" style="endArrow=none;html=1;rounded=0;entryX=0;entryY=0.5;entryDx=0;entryDy=0;exitX=1;exitY=0.5;exitDx=0;exitDy=0;" edge="1" parent="1" source="gppZokB7CRQZHfj-MRDj-84" target="gppZokB7CRQZHfj-MRDj-2">
          <mxGeometry width="50" height="50" relative="1" as="geometry">
            <mxPoint x="370.8000000000002" y="402.7302000000002" as="sourcePoint" />
            <mxPoint x="531.98" y="460.22" as="targetPoint" />
          </mxGeometry>
        </mxCell>
        <mxCell id="gppZokB7CRQZHfj-MRDj-88" value="1..1" style="edgeLabel;html=1;align=center;verticalAlign=middle;resizable=0;points=[];" vertex="1" connectable="0" parent="gppZokB7CRQZHfj-MRDj-85">
          <mxGeometry x="-0.2753" y="-1" relative="1" as="geometry">
            <mxPoint as="offset" />
          </mxGeometry>
        </mxCell>
        <mxCell id="gppZokB7CRQZHfj-MRDj-89" value="" style="endArrow=none;html=1;rounded=0;entryX=1;entryY=0.5;entryDx=0;entryDy=0;exitX=0;exitY=0.5;exitDx=0;exitDy=0;" edge="1" parent="1" source="gppZokB7CRQZHfj-MRDj-84" target="gppZokB7CRQZHfj-MRDj-71">
          <mxGeometry width="50" height="50" relative="1" as="geometry">
            <mxPoint x="300" y="377.4749999999998" as="sourcePoint" />
            <mxPoint x="170" y="300" as="targetPoint" />
          </mxGeometry>
        </mxCell>
        <mxCell id="gppZokB7CRQZHfj-MRDj-90" value="1..N" style="edgeLabel;html=1;align=center;verticalAlign=middle;resizable=0;points=[];" vertex="1" connectable="0" parent="gppZokB7CRQZHfj-MRDj-89">
          <mxGeometry x="0.2027" y="1" relative="1" as="geometry">
            <mxPoint as="offset" />
          </mxGeometry>
        </mxCell>
        <mxCell id="gppZokB7CRQZHfj-MRDj-91" value="&lt;u&gt;ID_GRUPO_EDAD&lt;/u&gt;" style="ellipse;whiteSpace=wrap;html=1;" vertex="1" parent="1">
          <mxGeometry x="-200" y="400" width="120" height="49.05" as="geometry" />
        </mxCell>
        <mxCell id="gppZokB7CRQZHfj-MRDj-92" value="EDAD" style="ellipse;whiteSpace=wrap;html=1;" vertex="1" parent="1">
          <mxGeometry x="-200" y="460" width="120" height="40" as="geometry" />
        </mxCell>
        <mxCell id="gppZokB7CRQZHfj-MRDj-95" value="" style="endArrow=none;html=1;rounded=0;entryX=1;entryY=0.5;entryDx=0;entryDy=0;exitX=0;exitY=0.25;exitDx=0;exitDy=0;" edge="1" parent="1" source="gppZokB7CRQZHfj-MRDj-71" target="gppZokB7CRQZHfj-MRDj-91">
          <mxGeometry width="50" height="50" relative="1" as="geometry">
            <mxPoint x="109.99999999999955" y="270" as="sourcePoint" />
            <mxPoint x="59.999999999999545" y="190" as="targetPoint" />
          </mxGeometry>
        </mxCell>
        <mxCell id="gppZokB7CRQZHfj-MRDj-97" value="" style="endArrow=none;html=1;rounded=0;entryX=1;entryY=0.5;entryDx=0;entryDy=0;exitX=0;exitY=0.75;exitDx=0;exitDy=0;" edge="1" parent="1" source="gppZokB7CRQZHfj-MRDj-71" target="gppZokB7CRQZHfj-MRDj-92">
          <mxGeometry width="50" height="50" relative="1" as="geometry">
            <mxPoint x="-20.000000000000455" y="455.95000000000005" as="sourcePoint" />
            <mxPoint x="-69.99999999999636" y="434.52499999999964" as="targetPoint" />
          </mxGeometry>
        </mxCell>
        <mxCell id="gppZokB7CRQZHfj-MRDj-98" value="" style="endArrow=none;html=1;rounded=0;entryX=1;entryY=0;entryDx=0;entryDy=0;exitX=0.25;exitY=1;exitDx=0;exitDy=0;" edge="1" parent="1" source="gppZokB7CRQZHfj-MRDj-71" target="gppZokB7CRQZHfj-MRDj-99">
          <mxGeometry width="50" height="50" relative="1" as="geometry">
            <mxPoint x="-20.000000000000455" y="485.95000000000005" as="sourcePoint" />
            <mxPoint x="-69.99999999999636" y="494.52499999999964" as="targetPoint" />
          </mxGeometry>
        </mxCell>
        <mxCell id="gppZokB7CRQZHfj-MRDj-99" value="DENOMINACION" style="ellipse;whiteSpace=wrap;html=1;" vertex="1" parent="1">
          <mxGeometry x="-190" y="525" width="120" height="40" as="geometry" />
        </mxCell>
      </root>
    </mxGraphModel>
  </diagram>
  <diagram id="ihoJc7sQR7rVWSRFb00r" name="FACT_VACUNAS_CCAA">
    <mxGraphModel dx="862" dy="1053" grid="1" gridSize="10" guides="1" tooltips="1" connect="1" arrows="1" fold="1" page="1" pageScale="1" pageWidth="1169" pageHeight="827" math="0" shadow="0">
      <root>
        <mxCell id="0" />
        <mxCell id="1" parent="0" />
        <mxCell id="b8JE5BX-Uj5lGSh2j_9c-1" value="DIM_CCAA" style="rounded=0;whiteSpace=wrap;html=1;" vertex="1" parent="1">
          <mxGeometry x="1474" y="631.9" width="120" height="60" as="geometry" />
        </mxCell>
        <mxCell id="b8JE5BX-Uj5lGSh2j_9c-2" value="CCAA" style="ellipse;whiteSpace=wrap;html=1;" vertex="1" parent="1">
          <mxGeometry x="1415" y="725" width="100" height="40" as="geometry" />
        </mxCell>
        <mxCell id="b8JE5BX-Uj5lGSh2j_9c-3" value="&lt;u&gt;COD_CCAA&lt;/u&gt;" style="ellipse;whiteSpace=wrap;html=1;" vertex="1" parent="1">
          <mxGeometry x="1550" y="725" width="100" height="40" as="geometry" />
        </mxCell>
        <mxCell id="b8JE5BX-Uj5lGSh2j_9c-4" value="" style="endArrow=none;html=1;rounded=0;exitX=0.25;exitY=1;exitDx=0;exitDy=0;" edge="1" parent="1" source="b8JE5BX-Uj5lGSh2j_9c-1" target="b8JE5BX-Uj5lGSh2j_9c-2">
          <mxGeometry width="50" height="50" relative="1" as="geometry">
            <mxPoint x="1410" y="615" as="sourcePoint" />
            <mxPoint x="1460" y="565" as="targetPoint" />
          </mxGeometry>
        </mxCell>
        <mxCell id="b8JE5BX-Uj5lGSh2j_9c-5" value="" style="endArrow=none;html=1;rounded=0;entryX=0.5;entryY=0;entryDx=0;entryDy=0;exitX=0.75;exitY=1;exitDx=0;exitDy=0;" edge="1" parent="1" source="b8JE5BX-Uj5lGSh2j_9c-1" target="b8JE5BX-Uj5lGSh2j_9c-3">
          <mxGeometry width="50" height="50" relative="1" as="geometry">
            <mxPoint x="1610" y="635" as="sourcePoint" />
            <mxPoint x="1660" y="585" as="targetPoint" />
          </mxGeometry>
        </mxCell>
        <mxCell id="b8JE5BX-Uj5lGSh2j_9c-6" value="" style="rounded=0;whiteSpace=wrap;html=1;" vertex="1" parent="1">
          <mxGeometry x="1458.85" y="345" width="150" height="80" as="geometry" />
        </mxCell>
        <mxCell id="b8JE5BX-Uj5lGSh2j_9c-7" value="VACUNAS_CCAA" style="rounded=0;whiteSpace=wrap;html=1;" vertex="1" parent="1">
          <mxGeometry x="1473.85" y="355" width="120" height="60" as="geometry" />
        </mxCell>
        <mxCell id="b8JE5BX-Uj5lGSh2j_9c-8" value="Recibidas" style="ellipse;whiteSpace=wrap;html=1;" vertex="1" parent="1">
          <mxGeometry x="1230" y="390" width="130" height="30" as="geometry" />
        </mxCell>
        <mxCell id="b8JE5BX-Uj5lGSh2j_9c-9" value="" style="endArrow=none;html=1;rounded=0;strokeColor=default;entryX=0;entryY=0.75;entryDx=0;entryDy=0;exitX=1;exitY=0.5;exitDx=0;exitDy=0;" edge="1" parent="1" source="b8JE5BX-Uj5lGSh2j_9c-8" target="b8JE5BX-Uj5lGSh2j_9c-6">
          <mxGeometry width="50" height="50" relative="1" as="geometry">
            <mxPoint x="1121.35" y="530" as="sourcePoint" />
            <mxPoint x="1201.35" y="440" as="targetPoint" />
          </mxGeometry>
        </mxCell>
        <mxCell id="b8JE5BX-Uj5lGSh2j_9c-10" value="Porcentaje Adm/Recib" style="ellipse;whiteSpace=wrap;html=1;dashed=1;" vertex="1" parent="1">
          <mxGeometry x="1560" y="210" width="160" height="50" as="geometry" />
        </mxCell>
        <mxCell id="b8JE5BX-Uj5lGSh2j_9c-11" value="" style="endArrow=none;html=1;rounded=0;strokeColor=default;exitX=0.5;exitY=1;exitDx=0;exitDy=0;entryX=1;entryY=0;entryDx=0;entryDy=0;" edge="1" parent="1" source="b8JE5BX-Uj5lGSh2j_9c-10" target="b8JE5BX-Uj5lGSh2j_9c-6">
          <mxGeometry width="50" height="50" relative="1" as="geometry">
            <mxPoint x="1351.35" y="560" as="sourcePoint" />
            <mxPoint x="1331.35" y="440" as="targetPoint" />
          </mxGeometry>
        </mxCell>
        <mxCell id="b8JE5BX-Uj5lGSh2j_9c-14" value="Total_administradas" style="ellipse;whiteSpace=wrap;html=1;" vertex="1" parent="1">
          <mxGeometry x="1220" y="270" width="120" height="40" as="geometry" />
        </mxCell>
        <mxCell id="b8JE5BX-Uj5lGSh2j_9c-15" value="" style="endArrow=none;html=1;rounded=0;strokeColor=default;entryX=0;entryY=0.25;entryDx=0;entryDy=0;exitX=1;exitY=1;exitDx=0;exitDy=0;" edge="1" parent="1" source="b8JE5BX-Uj5lGSh2j_9c-14" target="b8JE5BX-Uj5lGSh2j_9c-6">
          <mxGeometry width="50" height="50" relative="1" as="geometry">
            <mxPoint x="1148.85" y="390" as="sourcePoint" />
            <mxPoint x="1218.85" y="300" as="targetPoint" />
          </mxGeometry>
        </mxCell>
        <mxCell id="b8JE5BX-Uj5lGSh2j_9c-16" value="Fecha&lt;br&gt;-----------" style="ellipse;whiteSpace=wrap;html=1;" vertex="1" parent="1">
          <mxGeometry x="1410" y="160" width="100" height="40" as="geometry" />
        </mxCell>
        <mxCell id="b8JE5BX-Uj5lGSh2j_9c-17" value="" style="endArrow=none;html=1;rounded=0;exitX=0.5;exitY=0;exitDx=0;exitDy=0;" edge="1" parent="1" source="b8JE5BX-Uj5lGSh2j_9c-6" target="b8JE5BX-Uj5lGSh2j_9c-16">
          <mxGeometry width="50" height="50" relative="1" as="geometry">
            <mxPoint x="1292.6499999999992" y="271.98" as="sourcePoint" />
            <mxPoint x="1941.4235931288072" y="-125.85786437626882" as="targetPoint" />
          </mxGeometry>
        </mxCell>
        <mxCell id="b8JE5BX-Uj5lGSh2j_9c-18" value="" style="rhombus;whiteSpace=wrap;html=1;" vertex="1" parent="1">
          <mxGeometry x="1459" y="490" width="150" height="80" as="geometry" />
        </mxCell>
        <mxCell id="b8JE5BX-Uj5lGSh2j_9c-19" value="Administradas" style="rhombus;whiteSpace=wrap;html=1;" vertex="1" parent="1">
          <mxGeometry x="1474" y="500" width="120" height="60" as="geometry" />
        </mxCell>
        <mxCell id="b8JE5BX-Uj5lGSh2j_9c-20" value="" style="endArrow=none;html=1;rounded=0;entryX=0.5;entryY=0;entryDx=0;entryDy=0;exitX=0.5;exitY=1;exitDx=0;exitDy=0;" edge="1" parent="1" source="b8JE5BX-Uj5lGSh2j_9c-18" target="b8JE5BX-Uj5lGSh2j_9c-1">
          <mxGeometry width="50" height="50" relative="1" as="geometry">
            <mxPoint x="1734.6399999999999" y="715.86" as="sourcePoint" />
            <mxPoint x="1655" y="584.9999999999998" as="targetPoint" />
          </mxGeometry>
        </mxCell>
        <mxCell id="b8JE5BX-Uj5lGSh2j_9c-21" value="0..N" style="edgeLabel;html=1;align=center;verticalAlign=middle;resizable=0;points=[];" vertex="1" connectable="0" parent="b8JE5BX-Uj5lGSh2j_9c-20">
          <mxGeometry x="0.25" y="-1" relative="1" as="geometry">
            <mxPoint x="-39" as="offset" />
          </mxGeometry>
        </mxCell>
        <mxCell id="b8JE5BX-Uj5lGSh2j_9c-22" value="" style="endArrow=none;html=1;rounded=0;entryX=0.5;entryY=0;entryDx=0;entryDy=0;exitX=0.5;exitY=1;exitDx=0;exitDy=0;" edge="1" parent="1" source="b8JE5BX-Uj5lGSh2j_9c-7" target="b8JE5BX-Uj5lGSh2j_9c-18">
          <mxGeometry width="50" height="50" relative="1" as="geometry">
            <mxPoint x="1176.15" y="634.9999999999998" as="sourcePoint" />
            <mxPoint x="1246.15" y="665" as="targetPoint" />
          </mxGeometry>
        </mxCell>
        <mxCell id="b8JE5BX-Uj5lGSh2j_9c-23" value="1:1" style="edgeLabel;html=1;align=center;verticalAlign=middle;resizable=0;points=[];" vertex="1" connectable="0" parent="b8JE5BX-Uj5lGSh2j_9c-22">
          <mxGeometry x="-0.4" y="-2" relative="1" as="geometry">
            <mxPoint x="17" y="6" as="offset" />
          </mxGeometry>
        </mxCell>
        <mxCell id="b8JE5BX-Uj5lGSh2j_9c-24" value="DIM_TIPOS_VACUNAS" style="rounded=0;whiteSpace=wrap;html=1;" vertex="1" parent="1">
          <mxGeometry x="2030" y="350" width="160" height="70" as="geometry" />
        </mxCell>
        <mxCell id="b8JE5BX-Uj5lGSh2j_9c-30" value="&lt;u&gt;ID_TIPO&lt;/u&gt;" style="ellipse;whiteSpace=wrap;html=1;" vertex="1" parent="1">
          <mxGeometry x="1990" y="465" width="100" height="40" as="geometry" />
        </mxCell>
        <mxCell id="b8JE5BX-Uj5lGSh2j_9c-31" value="TIPO" style="ellipse;whiteSpace=wrap;html=1;" vertex="1" parent="1">
          <mxGeometry x="2134.85" y="465" width="100" height="40" as="geometry" />
        </mxCell>
        <mxCell id="b8JE5BX-Uj5lGSh2j_9c-32" value="" style="endArrow=none;html=1;rounded=0;exitX=0.25;exitY=1;exitDx=0;exitDy=0;" edge="1" parent="1" target="b8JE5BX-Uj5lGSh2j_9c-30" source="b8JE5BX-Uj5lGSh2j_9c-24">
          <mxGeometry width="50" height="50" relative="1" as="geometry">
            <mxPoint x="2050" y="455.0000000000001" as="sourcePoint" />
            <mxPoint x="2006" y="328.1" as="targetPoint" />
          </mxGeometry>
        </mxCell>
        <mxCell id="b8JE5BX-Uj5lGSh2j_9c-33" value="" style="endArrow=none;html=1;rounded=0;entryX=0.5;entryY=0;entryDx=0;entryDy=0;exitX=0.75;exitY=1;exitDx=0;exitDy=0;" edge="1" parent="1" target="b8JE5BX-Uj5lGSh2j_9c-31" source="b8JE5BX-Uj5lGSh2j_9c-24">
          <mxGeometry width="50" height="50" relative="1" as="geometry">
            <mxPoint x="2109.9999999999995" y="455.0000000000001" as="sourcePoint" />
            <mxPoint x="2206" y="348.1" as="targetPoint" />
          </mxGeometry>
        </mxCell>
        <mxCell id="b8JE5BX-Uj5lGSh2j_9c-34" value="" style="rhombus;whiteSpace=wrap;html=1;" vertex="1" parent="1">
          <mxGeometry x="1740" y="345" width="150" height="80" as="geometry" />
        </mxCell>
        <mxCell id="b8JE5BX-Uj5lGSh2j_9c-35" value="Tienen" style="rhombus;whiteSpace=wrap;html=1;" vertex="1" parent="1">
          <mxGeometry x="1755" y="355" width="120" height="60" as="geometry" />
        </mxCell>
        <mxCell id="b8JE5BX-Uj5lGSh2j_9c-36" value="" style="endArrow=none;html=1;rounded=0;entryX=0;entryY=0.5;entryDx=0;entryDy=0;exitX=1;exitY=0.5;exitDx=0;exitDy=0;" edge="1" parent="1" source="b8JE5BX-Uj5lGSh2j_9c-6" target="b8JE5BX-Uj5lGSh2j_9c-34">
          <mxGeometry width="50" height="50" relative="1" as="geometry">
            <mxPoint x="1543.85" y="425" as="sourcePoint" />
            <mxPoint x="1545" y="520" as="targetPoint" />
          </mxGeometry>
        </mxCell>
        <mxCell id="b8JE5BX-Uj5lGSh2j_9c-37" value="1:1" style="edgeLabel;html=1;align=center;verticalAlign=middle;resizable=0;points=[];" vertex="1" connectable="0" parent="b8JE5BX-Uj5lGSh2j_9c-36">
          <mxGeometry x="-0.4" y="-2" relative="1" as="geometry">
            <mxPoint x="17" y="6" as="offset" />
          </mxGeometry>
        </mxCell>
        <mxCell id="b8JE5BX-Uj5lGSh2j_9c-38" value="" style="endArrow=none;html=1;rounded=0;entryX=0;entryY=0.5;entryDx=0;entryDy=0;exitX=1;exitY=0.5;exitDx=0;exitDy=0;" edge="1" parent="1" source="b8JE5BX-Uj5lGSh2j_9c-34" target="b8JE5BX-Uj5lGSh2j_9c-24">
          <mxGeometry width="50" height="50" relative="1" as="geometry">
            <mxPoint x="1545" y="600" as="sourcePoint" />
            <mxPoint x="1544" y="641.9000000000001" as="targetPoint" />
          </mxGeometry>
        </mxCell>
        <mxCell id="b8JE5BX-Uj5lGSh2j_9c-39" value="0..N" style="edgeLabel;html=1;align=center;verticalAlign=middle;resizable=0;points=[];" vertex="1" connectable="0" parent="b8JE5BX-Uj5lGSh2j_9c-38">
          <mxGeometry x="0.25" y="-1" relative="1" as="geometry">
            <mxPoint x="-39" as="offset" />
          </mxGeometry>
        </mxCell>
      </root>
    </mxGraphModel>
  </diagram>
  <diagram id="C5RBs43oDa-KdzZeNtuy" name="FACT_VACUNAS_PROVINCIAS">
    <mxGraphModel dx="1778" dy="921" grid="1" gridSize="10" guides="1" tooltips="1" connect="1" arrows="1" fold="1" page="1" pageScale="1" pageWidth="827" pageHeight="1169" math="0" shadow="0">
      <root>
        <mxCell id="WIyWlLk6GJQsqaUBKTNV-0" />
        <mxCell id="WIyWlLk6GJQsqaUBKTNV-1" parent="WIyWlLk6GJQsqaUBKTNV-0" />
        <mxCell id="Ft72IrF9yBY_QFSrZ9IU-5" value="" style="rhombus;whiteSpace=wrap;html=1;" vertex="1" parent="WIyWlLk6GJQsqaUBKTNV-1">
          <mxGeometry x="382.5" y="312" width="150" height="80" as="geometry" />
        </mxCell>
        <mxCell id="Ft72IrF9yBY_QFSrZ9IU-6" value="" style="rounded=0;whiteSpace=wrap;html=1;" vertex="1" parent="WIyWlLk6GJQsqaUBKTNV-1">
          <mxGeometry x="350" y="510" width="215" height="80" as="geometry" />
        </mxCell>
        <mxCell id="Ft72IrF9yBY_QFSrZ9IU-9" value="DIM_PROVINCIAS" style="rounded=0;whiteSpace=wrap;html=1;" vertex="1" parent="WIyWlLk6GJQsqaUBKTNV-1">
          <mxGeometry x="397.5" y="180" width="120" height="60" as="geometry" />
        </mxCell>
        <mxCell id="Ft72IrF9yBY_QFSrZ9IU-12" value="PROVINCIA" style="ellipse;whiteSpace=wrap;html=1;" vertex="1" parent="WIyWlLk6GJQsqaUBKTNV-1">
          <mxGeometry x="620" y="90" width="100" height="40" as="geometry" />
        </mxCell>
        <mxCell id="Ft72IrF9yBY_QFSrZ9IU-13" value="&lt;u&gt;COD_PROVINCIA&lt;/u&gt;" style="ellipse;whiteSpace=wrap;html=1;" vertex="1" parent="WIyWlLk6GJQsqaUBKTNV-1">
          <mxGeometry x="480" y="40" width="120" height="40" as="geometry" />
        </mxCell>
        <mxCell id="Ft72IrF9yBY_QFSrZ9IU-14" value="" style="endArrow=none;html=1;rounded=0;entryX=0.5;entryY=1;entryDx=0;entryDy=0;exitX=0.5;exitY=0;exitDx=0;exitDy=0;" edge="1" parent="WIyWlLk6GJQsqaUBKTNV-1" source="Ft72IrF9yBY_QFSrZ9IU-9" target="Ft72IrF9yBY_QFSrZ9IU-13">
          <mxGeometry width="50" height="50" relative="1" as="geometry">
            <mxPoint x="1165" y="390" as="sourcePoint" />
            <mxPoint x="1215" y="340" as="targetPoint" />
          </mxGeometry>
        </mxCell>
        <mxCell id="Ft72IrF9yBY_QFSrZ9IU-15" value="" style="endArrow=none;html=1;rounded=0;entryX=0;entryY=1;entryDx=0;entryDy=0;exitX=0.75;exitY=0;exitDx=0;exitDy=0;" edge="1" parent="WIyWlLk6GJQsqaUBKTNV-1" source="Ft72IrF9yBY_QFSrZ9IU-9" target="Ft72IrF9yBY_QFSrZ9IU-12">
          <mxGeometry width="50" height="50" relative="1" as="geometry">
            <mxPoint x="1165" y="390" as="sourcePoint" />
            <mxPoint x="1215" y="340" as="targetPoint" />
          </mxGeometry>
        </mxCell>
        <mxCell id="Ft72IrF9yBY_QFSrZ9IU-24" value="FACT_VACUNAS_PROVINCIAS" style="rounded=0;whiteSpace=wrap;html=1;" vertex="1" parent="WIyWlLk6GJQsqaUBKTNV-1">
          <mxGeometry x="370" y="520" width="180" height="60" as="geometry" />
        </mxCell>
        <mxCell id="Ft72IrF9yBY_QFSrZ9IU-27" value="Total_administradas" style="ellipse;whiteSpace=wrap;html=1;" vertex="1" parent="WIyWlLk6GJQsqaUBKTNV-1">
          <mxGeometry x="170" y="540" width="120" height="40" as="geometry" />
        </mxCell>
        <mxCell id="Ft72IrF9yBY_QFSrZ9IU-28" value="" style="endArrow=none;html=1;rounded=0;strokeColor=default;entryX=0;entryY=0.5;entryDx=0;entryDy=0;exitX=1;exitY=0.5;exitDx=0;exitDy=0;" edge="1" parent="WIyWlLk6GJQsqaUBKTNV-1" source="Ft72IrF9yBY_QFSrZ9IU-27" target="Ft72IrF9yBY_QFSrZ9IU-24">
          <mxGeometry width="50" height="50" relative="1" as="geometry">
            <mxPoint x="300" y="640" as="sourcePoint" />
            <mxPoint x="400" y="590" as="targetPoint" />
          </mxGeometry>
        </mxCell>
        <mxCell id="Ft72IrF9yBY_QFSrZ9IU-29" value="Administradas" style="rhombus;whiteSpace=wrap;html=1;" vertex="1" parent="WIyWlLk6GJQsqaUBKTNV-1">
          <mxGeometry x="397.5" y="322" width="120" height="60" as="geometry" />
        </mxCell>
        <mxCell id="Ft72IrF9yBY_QFSrZ9IU-30" value="" style="endArrow=none;html=1;rounded=0;entryX=0.5;entryY=1;entryDx=0;entryDy=0;exitX=0.5;exitY=0;exitDx=0;exitDy=0;" edge="1" parent="WIyWlLk6GJQsqaUBKTNV-1" source="Ft72IrF9yBY_QFSrZ9IU-5" target="Ft72IrF9yBY_QFSrZ9IU-9">
          <mxGeometry width="50" height="50" relative="1" as="geometry">
            <mxPoint x="1004.6399999999999" y="410.86" as="sourcePoint" />
            <mxPoint x="970" y="280" as="targetPoint" />
          </mxGeometry>
        </mxCell>
        <mxCell id="Ft72IrF9yBY_QFSrZ9IU-31" value="0..N" style="edgeLabel;html=1;align=center;verticalAlign=middle;resizable=0;points=[];" vertex="1" connectable="0" parent="Ft72IrF9yBY_QFSrZ9IU-30">
          <mxGeometry x="0.25" y="-1" relative="1" as="geometry">
            <mxPoint x="-21" y="13" as="offset" />
          </mxGeometry>
        </mxCell>
        <mxCell id="Ft72IrF9yBY_QFSrZ9IU-32" value="" style="endArrow=none;html=1;rounded=0;entryX=0.5;entryY=1;entryDx=0;entryDy=0;exitX=0.5;exitY=0;exitDx=0;exitDy=0;" edge="1" parent="WIyWlLk6GJQsqaUBKTNV-1" source="Ft72IrF9yBY_QFSrZ9IU-6" target="Ft72IrF9yBY_QFSrZ9IU-5">
          <mxGeometry width="50" height="50" relative="1" as="geometry">
            <mxPoint x="440" y="380" as="sourcePoint" />
            <mxPoint x="520" y="310" as="targetPoint" />
          </mxGeometry>
        </mxCell>
        <mxCell id="Ft72IrF9yBY_QFSrZ9IU-33" value="1..1" style="edgeLabel;html=1;align=center;verticalAlign=middle;resizable=0;points=[];" vertex="1" connectable="0" parent="Ft72IrF9yBY_QFSrZ9IU-32">
          <mxGeometry x="-0.4" y="-2" relative="1" as="geometry">
            <mxPoint x="21" y="-25" as="offset" />
          </mxGeometry>
        </mxCell>
        <mxCell id="Ft72IrF9yBY_QFSrZ9IU-40" value="Latitud" style="ellipse;whiteSpace=wrap;html=1;" vertex="1" parent="WIyWlLk6GJQsqaUBKTNV-1">
          <mxGeometry x="210" y="100" width="100" height="40" as="geometry" />
        </mxCell>
        <mxCell id="Ft72IrF9yBY_QFSrZ9IU-41" value="Longitud" style="ellipse;whiteSpace=wrap;html=1;" vertex="1" parent="WIyWlLk6GJQsqaUBKTNV-1">
          <mxGeometry x="370" y="40" width="100" height="40" as="geometry" />
        </mxCell>
        <mxCell id="Ft72IrF9yBY_QFSrZ9IU-42" value="" style="endArrow=none;html=1;rounded=0;entryX=0.5;entryY=1;entryDx=0;entryDy=0;exitX=0.397;exitY=-0.018;exitDx=0;exitDy=0;exitPerimeter=0;" edge="1" parent="WIyWlLk6GJQsqaUBKTNV-1" source="Ft72IrF9yBY_QFSrZ9IU-9" target="Ft72IrF9yBY_QFSrZ9IU-41">
          <mxGeometry width="50" height="50" relative="1" as="geometry">
            <mxPoint x="994.9999999999995" y="259.9999999999998" as="sourcePoint" />
            <mxPoint x="1119.8544793961437" y="204.22556786346536" as="targetPoint" />
          </mxGeometry>
        </mxCell>
        <mxCell id="Ft72IrF9yBY_QFSrZ9IU-43" value="" style="endArrow=none;html=1;rounded=0;entryX=1;entryY=1;entryDx=0;entryDy=0;" edge="1" parent="WIyWlLk6GJQsqaUBKTNV-1" source="Ft72IrF9yBY_QFSrZ9IU-9" target="Ft72IrF9yBY_QFSrZ9IU-40">
          <mxGeometry width="50" height="50" relative="1" as="geometry">
            <mxPoint x="1004.9999999999995" y="269.9999999999998" as="sourcePoint" />
            <mxPoint x="1129.8544793961437" y="214.22556786346536" as="targetPoint" />
          </mxGeometry>
        </mxCell>
        <mxCell id="Ft72IrF9yBY_QFSrZ9IU-69" value="Fecha&lt;br&gt;----------" style="ellipse;whiteSpace=wrap;html=1;" vertex="1" parent="WIyWlLk6GJQsqaUBKTNV-1">
          <mxGeometry x="210" y="430" width="100" height="40" as="geometry" />
        </mxCell>
        <mxCell id="Ft72IrF9yBY_QFSrZ9IU-70" value="" style="endArrow=none;html=1;rounded=0;exitX=0.25;exitY=0;exitDx=0;exitDy=0;" edge="1" parent="WIyWlLk6GJQsqaUBKTNV-1" source="Ft72IrF9yBY_QFSrZ9IU-6" target="Ft72IrF9yBY_QFSrZ9IU-69">
          <mxGeometry width="50" height="50" relative="1" as="geometry">
            <mxPoint x="780" y="375" as="sourcePoint" />
            <mxPoint x="1092.5735931288073" y="124.14213562373118" as="targetPoint" />
          </mxGeometry>
        </mxCell>
        <mxCell id="-JW7CSg1R-EiNqnC93vU-0" value="DIM_TIPOS_VACUNAS" style="rounded=0;whiteSpace=wrap;html=1;" vertex="1" parent="WIyWlLk6GJQsqaUBKTNV-1">
          <mxGeometry x="377.5799999999999" y="821.2" width="160" height="70" as="geometry" />
        </mxCell>
        <mxCell id="-JW7CSg1R-EiNqnC93vU-1" value="&lt;u&gt;ID_TIPO&lt;/u&gt;" style="ellipse;whiteSpace=wrap;html=1;" vertex="1" parent="WIyWlLk6GJQsqaUBKTNV-1">
          <mxGeometry x="337.5799999999999" y="936.2" width="100" height="40" as="geometry" />
        </mxCell>
        <mxCell id="-JW7CSg1R-EiNqnC93vU-2" value="TIPO" style="ellipse;whiteSpace=wrap;html=1;" vertex="1" parent="WIyWlLk6GJQsqaUBKTNV-1">
          <mxGeometry x="482.42999999999984" y="936.2" width="100" height="40" as="geometry" />
        </mxCell>
        <mxCell id="-JW7CSg1R-EiNqnC93vU-3" value="" style="endArrow=none;html=1;rounded=0;exitX=0.25;exitY=1;exitDx=0;exitDy=0;" edge="1" parent="WIyWlLk6GJQsqaUBKTNV-1" source="-JW7CSg1R-EiNqnC93vU-0" target="-JW7CSg1R-EiNqnC93vU-1">
          <mxGeometry width="50" height="50" relative="1" as="geometry">
            <mxPoint x="397.5799999999999" y="926.2000000000002" as="sourcePoint" />
            <mxPoint x="353.5799999999999" y="799.3000000000001" as="targetPoint" />
          </mxGeometry>
        </mxCell>
        <mxCell id="-JW7CSg1R-EiNqnC93vU-4" value="" style="endArrow=none;html=1;rounded=0;entryX=0.5;entryY=0;entryDx=0;entryDy=0;exitX=0.75;exitY=1;exitDx=0;exitDy=0;" edge="1" parent="WIyWlLk6GJQsqaUBKTNV-1" source="-JW7CSg1R-EiNqnC93vU-0" target="-JW7CSg1R-EiNqnC93vU-2">
          <mxGeometry width="50" height="50" relative="1" as="geometry">
            <mxPoint x="457.5799999999995" y="926.2000000000002" as="sourcePoint" />
            <mxPoint x="553.5799999999999" y="819.3000000000001" as="targetPoint" />
          </mxGeometry>
        </mxCell>
        <mxCell id="-JW7CSg1R-EiNqnC93vU-5" value="" style="rhombus;whiteSpace=wrap;html=1;" vertex="1" parent="WIyWlLk6GJQsqaUBKTNV-1">
          <mxGeometry x="382.4999999999999" y="670" width="150" height="80" as="geometry" />
        </mxCell>
        <mxCell id="-JW7CSg1R-EiNqnC93vU-6" value="Tienen" style="rhombus;whiteSpace=wrap;html=1;" vertex="1" parent="WIyWlLk6GJQsqaUBKTNV-1">
          <mxGeometry x="397.4999999999999" y="680" width="120" height="60" as="geometry" />
        </mxCell>
        <mxCell id="-JW7CSg1R-EiNqnC93vU-7" value="" style="endArrow=none;html=1;rounded=0;exitX=0.5;exitY=1;exitDx=0;exitDy=0;entryX=0.5;entryY=0;entryDx=0;entryDy=0;" edge="1" parent="WIyWlLk6GJQsqaUBKTNV-1" source="-JW7CSg1R-EiNqnC93vU-5" target="-JW7CSg1R-EiNqnC93vU-0">
          <mxGeometry width="50" height="50" relative="1" as="geometry">
            <mxPoint x="-52.42000000000007" y="1125" as="sourcePoint" />
            <mxPoint x="570" y="780" as="targetPoint" />
          </mxGeometry>
        </mxCell>
        <mxCell id="-JW7CSg1R-EiNqnC93vU-8" value="0..N" style="edgeLabel;html=1;align=center;verticalAlign=middle;resizable=0;points=[];" vertex="1" connectable="0" parent="-JW7CSg1R-EiNqnC93vU-7">
          <mxGeometry x="0.25" y="-1" relative="1" as="geometry">
            <mxPoint x="-39" as="offset" />
          </mxGeometry>
        </mxCell>
        <mxCell id="-JW7CSg1R-EiNqnC93vU-9" value="" style="endArrow=none;html=1;rounded=0;exitX=0.5;exitY=1;exitDx=0;exitDy=0;entryX=0.5;entryY=0;entryDx=0;entryDy=0;" edge="1" parent="WIyWlLk6GJQsqaUBKTNV-1" source="Ft72IrF9yBY_QFSrZ9IU-6" target="-JW7CSg1R-EiNqnC93vU-5">
          <mxGeometry width="50" height="50" relative="1" as="geometry">
            <mxPoint x="467.5" y="800.0000000000002" as="sourcePoint" />
            <mxPoint x="465.0799999999999" y="884.9999999999998" as="targetPoint" />
          </mxGeometry>
        </mxCell>
        <mxCell id="-JW7CSg1R-EiNqnC93vU-10" value="1..1" style="edgeLabel;html=1;align=center;verticalAlign=middle;resizable=0;points=[];" vertex="1" connectable="0" parent="-JW7CSg1R-EiNqnC93vU-9">
          <mxGeometry x="0.25" y="-1" relative="1" as="geometry">
            <mxPoint x="-36" y="-5" as="offset" />
          </mxGeometry>
        </mxCell>
      </root>
    </mxGraphModel>
  </diagram>
</mxfile>
